<?xml version="1.0" encoding="iso-8859-1"?>
<!-- Generator: Adobe Illustrator 19.0.0, SVG Export Plug-In . SVG Version: 6.00 Build 0)  -->
<svg fill="#FFFFFF" version="1.1" id="Layer_1" xmlns="http://www.w3.org/2000/svg" xmlns:xlink="http://www.w3.org/1999/xlink" x="0px" y="0px"
	 viewBox="0 0 512 512" style="enable-background:new 0 0 512 512;" xml:space="preserve">
<g>
	<g>
		<path d="M495.268,85.333H16.732C7.491,85.333,0,92.825,0,102.065v161.743c0,9.241,7.492,16.732,16.732,16.732h182.365v63.582
			h-11.14c-36.29,0-65.813,29.523-65.813,65.813c0,9.241,7.491,16.732,16.732,16.732h234.248c0.008,0,0.015,0,0.022,0
			c9.241,0,16.732-7.491,16.732-16.732c0-0.339-0.01-0.675-0.03-1.008c-0.541-35.827-29.852-64.804-65.805-64.804h-11.14V280.54
			h182.365c9.241,0,16.732-7.491,16.732-16.732V102.065C512,92.825,504.508,85.333,495.268,85.333z M324.044,377.586
			c11.717,0,22,6.263,27.677,15.617H160.279c5.675-9.353,15.959-15.617,27.677-15.617
			C202.425,377.586,310.334,377.586,324.044,377.586z M232.562,344.122V280.54h46.878v63.582H232.562z M478.536,247.076
			c-12.694,0-437.771,0-445.072,0V118.797h445.072V247.076z"/>
	</g>
</g>
<g>
	<g>
		<path d="M111.915,128.408c-30.067,0-54.529,24.461-54.529,54.529s24.461,54.529,54.529,54.529
			c30.068,0,54.529-24.461,54.529-54.529S141.982,128.408,111.915,128.408z M111.915,204.001c-11.615,0-21.064-9.449-21.064-21.065
			s9.449-21.065,21.064-21.065c11.615,0,21.065,9.449,21.065,21.065C132.979,194.552,123.53,204.001,111.915,204.001z"/>
	</g>
</g>
<g>
	<g>
		<path d="M247.266,128.408c-30.067,0-54.527,24.461-54.527,54.529s24.461,54.529,54.527,54.529
			c30.067,0,54.529-24.461,54.529-54.529S277.333,128.408,247.266,128.408z M247.266,204.001c-11.615,0-21.065-9.449-21.065-21.065
			c0-11.615,9.45-21.065,21.065-21.065c11.615,0,21.065,9.449,21.065,21.065C268.33,194.552,258.881,204.001,247.266,204.001z"/>
	</g>
</g>
<g>
	<g>
		<circle cx="408.819" cy="182.937" r="23.548"/>
	</g>
</g>
<g>
</g>
<g>
</g>
<g>
</g>
<g>
</g>
<g>
</g>
<g>
</g>
<g>
</g>
<g>
</g>
<g>
</g>
<g>
</g>
<g>
</g>
<g>
</g>
<g>
</g>
<g>
</g>
<g>
</g>
</svg>
